<svg height="30" viewBox="0 0 500 500" width="25" xmlns="http://www.w3.org/2000/svg"><path d="m477.699219 272.726562-7.816407-38.421874-15.820312-77.617188-27.761719-136.242188-27.761719 136.242188-7.90625 38.808594-7.910156 38.808594-7.902344 38.800781-8.109374 39.789062h119.179687zm0 0" fill="#f8ec7d"/><path d="m426.300781 10.445312-59.589843 292.449219h61.53125zm0 0" fill="#e2d574"/><path d="m432.347656 368.242188-.019531 33.148437h-104.179687v-.980469c.003906-17.035156 13.8125-30.847656 30.851562-30.847656.390625 0 .789062.007812 1.1875.019531 6.878906-13.019531 20.289062-21.273437 35.011719-21.550781 14.722656-.28125 28.433593 7.460938 35.800781 20.210938zm0 0" fill="#e48e66"/><path d="m214.40625 400.722656v.011719h-77.617188v-116.730469h77.617188zm0 0" fill="#f8ec7d"/><g fill="#e48e66"><path d="m291.367188 156.890625v60.460937l-34.929688-34.929687v-25.53125zm0 0"/><path d="m256.4375 120.992188h34.929688v35.898437h-34.929688zm0 0"/><path d="m288.730469 214.714844.203125.199218 48.308594 48.3125h-48.308594v135.53125h-77.820313v-116.730468h-77.621093v116.730468h-77.820313v-135.53125h-48.308594l164.9375-164.941406zm0 0"/></g><path d="m10 265.863281h48.308594v135.527344h77.820312v-116.730469h38.808594v-183.738281zm0 0" fill="#d18162"/><path d="m174.9375 286.640625h-37.390625v116.730469h37.390625zm0 0" fill="#e2d574"/><path d="m436.105469 8.449219c-.953125-4.65625-5.050781-8-9.800781-8-4.753907 0-8.851563 3.34375-9.800782 8l-59.601562 292.449219c-.597656 2.941406.15625 6 2.054687 8.324218 1.898438 2.328125 4.742188 3.675782 7.746094 3.675782h55.335937v32.449218c-22.808593-13.867187-52.472656-7.515625-67.609374 14.46875-17.269532 1.972656-31.410157 14.632813-35.273438 31.578125h-17.585938v-115.53125h38.308594c4.042969 0 7.691406-2.4375 9.238282-6.175781 1.546874-3.734375.691406-8.035156-2.167969-10.898438l-45.582031-45.582031v-92.214843c0-5.523438-4.476563-10-10-10h-34.929688c-5.519531 0-10 4.476562-10 10v37.289062l-64.425781-64.429688c-3.90625-3.90625-10.238281-3.90625-14.144531 0l-164.9375 164.9375c-2.8593755 2.863282-3.714844 7.164063-2.167969 10.898438 1.546875 3.738281 5.195312 6.175781 9.238281 6.175781h38.308594v115.527344h-33.757813v20h456.308594v-20h-28.816406v-78.5h43.851562c3.003907 0 5.847657-1.347656 7.75-3.671875 1.898438-2.328125 2.652344-5.382812 2.050781-8.328125zm-154.738281 122.542969v15.898437h-14.929688v-15.898437zm-14.929688 35.898437h14.929688v26.316406l-14.929688-14.929687zm-208.128906 88.972656h-24.167969l140.800781-140.800781 140.800782 140.800781h-24.171876c-5.523437 0-10 4.476563-10 10v125.527344h-57.820312v-106.726563c0-5.523437-4.476562-10-10-10h-77.621094c-5.523437 0-10 4.476563-10 10v106.726563h-57.820312v-125.527344c0-5.523437-4.476563-10-10-10zm145.441406 135.527344h-57.621094v-96.726563h57.621094zm136.480469 0c3.464843-7.21875 10.757812-11.816406 18.769531-11.828125.300781 0 .609375.007812.921875.015625 3.804687.121094 7.34375-1.945313 9.105469-5.320313 5.128906-9.714843 15.09375-15.914062 26.074218-16.222656 10.980469-.308594 21.277344 5.320313 26.941407 14.734375v18.621094zm54.734375-177.082031 3.832031-18.808594h55.011719l3.832031 18.808594zm66.75 20 3.832031 18.808594h-78.492187l3.835937-18.808594zm-11.984375-58.808594h-46.855469l3.832031-18.808594h39.191407zm-23.425781-114.972656 15.523437 76.164062h-31.046875zm-47.355469 232.367187 4.03125-19.777343h86.640625l4.03125 19.777343zm0 0" fill="#63316d"/></svg>