<svg 
height="30" 
viewBox="0 0 500 500" 
width="25" 
xmlns="http://www.w3.org/2000/svg"
><path style="fill:#fff;"  d="m440.210938 8.011719c-.945313-4.660157-5.042969-8.00781275-9.800782-8.00781275-4.753906 0-8.851562 3.34765575-9.800781 8.00781275l-59.589844 292.449219c-.597656 2.941406.15625 5.996093 2.054688 8.324218 1.898437 2.324219 4.742187 3.675782 7.746093 3.675782h51.535157v33.109374c-22.828125-14.097656-52.699219-7.816406-67.914063 14.28125-17.265625 1.972657-31.40625 14.628907-35.277344 31.570313h-17.589843v-115.53125h38.308593c4.046876 0 7.691407-2.4375 9.238282-6.175781 1.550781-3.734375.695312-8.039063-2.167969-10.898438l-45.582031-45.582031v-92.210937c0-5.523438-4.476563-10-10-10h-34.929688c-5.519531 0-10 4.476562-10 10v37.285156l-64.425781-64.429688c-3.90625-3.90625-10.238281-3.90625-14.144531 0l-164.9375 164.933594c-2.8632815 2.859375-3.722656 7.164062-2.171875 10.902344 1.546875 3.738281 5.195312 6.175781 9.242187 6.175781h38.308594v115.527344h-33.753906c-5.523438 0-10 4.480469-10 10 0 5.523437 4.476562 10 10 10h456.304687c5.523438 0 10-4.476563 10-10 0-5.519531-4.476562-10-10-10h-28.511719v-78.960938h47.652344c3.003906 0 5.847656-1.351562 7.75-3.675781 1.898438-2.328125 2.652344-5.382812 2.050782-8.324219zm-173.769532 123.011719h14.929688v15.898437h-14.929688zm0 35.898437h14.929688v26.316406l-14.929688-14.925781zm-62.6875 224.5h-57.617187v-96.730469h57.617187zm77.820313-125.53125v125.53125h-57.820313v-106.730469c0-5.523437-4.476562-10-10-10h-77.617187c-5.523438 0-10 4.476563-10 10v106.726563h-57.824219v-125.527344c0-5.523437-4.476562-10-10-10h-24.164062l140.796874-140.800781 140.800782 140.800781h-24.171875c-5.523438 0-10 4.476563-10 10zm140.777343 125.53125h-82.117187c3.46875-7.21875 10.761719-11.8125 18.769531-11.828125.253906 0 .5 0 .757813.015625 3.859375.167969 7.46875-1.902344 9.269531-5.316406 5.179688-9.804688 15.277344-16.019531 26.363281-16.230469 11.085938-.210938 21.410157 5.621094 26.957031 15.222656zm8.058594-331.328125 15.519532 76.15625h-31.035157zm-19.59375 96.15625h39.1875l3.832032 18.808594h-46.851563zm-7.90625 38.808594h55.003906l3.832032 18.8125h-62.667969zm-7.90625 38.808594h70.824219l3.832031 18.808593h-78.492187zm-11.9375 58.589843 4.03125-19.78125h86.636719l4.03125 19.78125zm0 0"/></svg>