<svg height="30" viewBox="0 0 434 434" width="20" xmlns="http://www.w3.org/2000/svg">
<path d="m427 103.621094v161.917968c0 16.570313-13.429688 30-30 30h-84.058594l-33.519531 55.480469c-.757813 1.183594-2.0625 1.898438-3.46875 1.898438-1.402344 0-2.707031-.714844-3.464844-1.898438l-33.519531-55.480469h-43.617188l22.378907-37.027343h95.269531c18.777344 0 34-15.222657 34-34v-150.890625h50c16.570312 0 30 13.429687 30 30zm0 0" fill="#f8ec7d"/><path d="m195.351562 295.539062-15.613281 25.839844c-.851562 1.347656-2.335937 2.160156-3.929687 2.160156s-3.074219-.8125-3.929688-2.160156l-37.988281-62.867187h-92.890625c-18.777344 0-34-15.222657-34-34v-183.511719c0-18.777344 15.222656-34 34-34h272c18.777344 0 34 15.222656 34 34v183.511719c0 18.777343-15.222656 34-34 34h-95.269531zm0 0" fill="#e48e66"/><g fill="#63316d"><path d="m257.0625 78.726562c-2.671875-2.800781-7.105469-2.902343-9.902344-.230468l-90.761718 86.703125-49.449219-49.460938c-2.734375-2.730469-7.164063-2.730469-9.898438 0-2.734375 2.734375-2.734375 7.167969 0 9.902344l54.289063 54.289063c2.691406 2.691406 7.035156 2.738281 9.785156.113281l95.710938-91.421875c2.792968-2.667969 2.894531-7.101563.226562-9.894532zm0 0"/><path d="m397 66.621094h-43v-25.621094c-.027344-22.632812-18.367188-40.9726562-41-41h-272c-22.632812.0273438-40.9726562 18.367188-41 41v183.511719c.0273438 22.632812 18.367188 40.972656 41 41h88.941406l35.949219 59.488281c.023437.046875.050781.089844.082031.132812 2.136719 3.367188 5.847656 5.40625 9.835938 5.40625 3.988281 0 7.699218-2.039062 9.839844-5.40625.027343-.042968.054687-.089843.082031-.132812l13.570312-22.460938h35.71875l31.476563 52.101563c.027344.046875.054687.089844.085937.136719 2.027344 3.203125 5.558594 5.144531 9.351563 5.140625h.015625c3.792969.007812 7.324219-1.925781 9.363281-5.121094.03125-.054687.066406-.101563.097656-.15625l31.480469-52.101563h80.109375c20.425781-.023437 36.976562-16.574218 37-37v-161.917968c-.023438-20.425782-16.574219-36.976563-37-37zm-221.191406 247.726562-35.925782-59.457031c-1.269531-2.097656-3.542968-3.378906-5.992187-3.378906h-92.890625c-14.90625-.019531-26.984375-12.097657-27-27v-183.511719c.015625-14.90625 12.09375-26.984375 27-27h272c14.90625.015625 26.984375 12.09375 27 27v183.511719c-.015625 14.902343-12.09375 26.980469-27 27h-95.269531c-2.453125 0-4.722657 1.28125-5.992188 3.378906l-21.925781 36.285156c-.359375.457031-.660156.953125-.894531 1.480469zm244.191406-48.808594c-.015625 12.699219-10.304688 22.988282-23 23h-84.058594c-2.453125 0-4.726562 1.28125-5.992187 3.382813l-30.996094 51.296875-30.992187-51.296875c-1.265626-2.101563-3.539063-3.382813-5.992188-3.382813h-31.207031l13.917969-23.027343h91.320312c22.632812-.027344 40.972656-18.367188 41-41v-143.890625h43c12.695312.011718 22.984375 10.300781 23 23zm0 0"/></g></svg>