<svg height="30" viewBox="0 0 400 400" width="20" xmlns="http://www.w3.org/2000/svg"><path d="m253.246094 123.878906v109.878906l-18.75-20-18.738282 20-18.75-20-18.75 20-18.761718-20-18.75 20v-110.628906h112.5zm0 0" fill="#6fe3ff"/><path d="m386.996094 123.128906v219.058594c0 8.742188-7.085938 15.828125-15.828125 15.832031h-348.339844c-8.742187-.003906-15.828125-7.089843-15.832031-15.832031v-219.058594h133.75v110.628906l18.75-20 18.761718 20 18.75-20 18.75 20 18.738282-20 18.75 20v-110.628906zm-280 194.890625v-34h-60v34zm0 0" fill="#e48e66"/><path d="m317.957031 14.820312 69.039063 108.308594h-190v-115.628906h107.609375c5.410156 0 10.445312 2.757812 13.351562 7.320312zm0 0" fill="#f8ec7d"/><path d="m196.996094 7.5v115.628906h-190l69.039062-108.308594c2.910156-4.5625 7.945313-7.320312 13.351563-7.320312zm0 0" fill="#f8ec7d"/><path d="m46.996094 284.019531h60v34h-60zm0 0" fill="#6fe3ff"/><g fill="#63316d"><path d="m393.734375 121.25c-.007813-.035156-.015625-.074219-.027344-.109375-.085937-.292969-.191406-.578125-.316406-.855469-.019531-.042968-.042969-.085937-.0625-.128906-.113281-.238281-.238281-.46875-.375-.691406-.019531-.035156-.03125-.066406-.054687-.101563l-69.039063-108.3125c-4.183594-6.585937-11.449219-10.570312-19.253906-10.550781h-215.21875c-7.804688-.019531-15.074219 3.96875-19.253907 10.558594l-69.035156 108.308594c-.019531.03125-.035156.0625-.054687.097656-.136719.222656-.261719.453125-.371094.691406-.023437.042969-.046875.085938-.066406.132812-.121094.277344-.226563.5625-.316407.851563-.007812.039063-.015624.074219-.027343.113281-.070313.25-.125.507813-.1640628.765625-.0117187.070313-.0234374.140625-.0351562.214844-.0390625.296875-.05859375.597656-.0625.898437v219.054688c.015625 12.605469 10.226562 22.816406 22.828125 22.832031h348.339844c12.601562-.015625 22.816406-10.226562 22.828125-22.832031v-219.058594c0-.300781-.023438-.601562-.0625-.898437-.007813-.074219-.023438-.144531-.035156-.214844-.039063-.257813-.09375-.511719-.164063-.765625zm-81.679687-102.667969 62.179687 97.546875h-170.238281v-101.628906h100.609375c3.019531-.007812 5.832031 1.535156 7.449219 4.082031zm-164.308594 111.546875h98.5v85.929688l-6.640625-7.085938c-1.324219-1.414062-3.171875-2.214844-5.109375-2.214844-1.933594 0-3.785156.800782-5.105469 2.214844l-13.636719 14.550782-13.640625-14.554688c-1.324219-1.410156-3.171875-2.210938-5.105469-2.210938-1.9375 0-3.785156.800782-5.109374 2.210938l-13.644532 14.558594-13.652344-14.558594c-1.324218-1.410156-3.171874-2.210938-5.105468-2.210938s-3.78125.800782-5.105469 2.210938l-6.644531 7.089844zm-65.808594-111.542968c1.617188-2.550782 4.429688-4.09375 7.449219-4.085938h100.609375v101.628906h-170.234375zm289.230469 332.433593h-348.339844c-4.875-.007812-8.824219-3.957031-8.832031-8.832031v-212.058594h119.75v103.628906c0 2.875 1.753906 5.453126 4.425781 6.511719 2.671875 1.054688 5.71875.371094 7.683594-1.722656l13.640625-14.554687 13.652344 14.554687c1.324218 1.410156 3.171874 2.210937 5.109374 2.210937 1.933594 0 3.78125-.800781 5.105469-2.210937l13.644531-14.550781 13.640626 14.550781c1.324218 1.414063 3.171874 2.214844 5.109374 2.214844 1.933594 0 3.78125-.800781 5.105469-2.214844l13.632813-14.550781 13.644531 14.554687c1.964844 2.09375 5.011719 2.777344 7.683594 1.722657 2.671875-1.058594 4.425781-3.640626 4.421875-6.515626v-103.628906h119.75v212.058594c-.003906 4.875-3.953125 8.824219-8.828125 8.832031zm0 0"/><path d="m106.996094 277.019531h-60c-3.863282 0-7 3.132813-7 7v34c0 3.863281 3.136718 7 7 7h60c3.867187 0 7-3.136719 7-7v-34c0-3.867187-3.132813-7-7-7zm-7 34h-46v-20h46zm0 0"/><path d="m231.996094 277.019531h-91c-3.863282 0-7 3.132813-7 7 0 3.863281 3.136718 7 7 7h91c3.867187 0 7-3.136719 7-7 0-3.867187-3.132813-7-7-7zm0 0"/><path d="m186.996094 303.019531h-46c-3.863282 0-7 3.132813-7 7 0 3.863281 3.136718 7 7 7h46c3.867187 0 7-3.136719 7-7 0-3.867187-3.132813-7-7-7zm0 0"/></g></svg>