<svg height="80" viewBox="0 0 128 128" width="90" xmlns="http://www.w3.org/2000/svg"><g>
<path d="m49.986 113.252v4.155a4.288 4.288 0 0 0 4.287 4.287h19.454a4.288 4.288 0 0 0 4.287-4.287v-4.155z" fill="#ff6e6e"/><path d="m121.694 66.033h-7.032v-6.893a46.446 46.446 0 0 0 -17.619-36.452v-12.038h-12.612v4.892a46.328 46.328 0 0 0 -14.125-2.892v-6.344h-12.612v6.344a46.328 46.328 0 0 0 -14.125 2.892v-4.892h-12.612v12.038a46.446 46.446 0 0 0 -17.619 36.452v6.893h-7.032v9.08h.066a.667.667 0 0 0 -.066.262c0 3.214 25.831 9.2 57.694 9.2s57.694-5.983 57.694-9.2a.667.667 0 0 0 -.066-.262h.066z" fill="#ffca28"/><g fill="#e5af29"><path d="m121.694 66.033h-115.388v9.08h.066a.667.667 0 0 0 -.066.262c0 3.214 25.831 9.2 57.694 9.2s57.694-5.983 57.694-9.2a.667.667 0 0 0 -.066-.262h.066z"/><path d="m57.694 6.306v43.382a4.514 4.514 0 0 0 4.514 4.512h3.584a4.514 4.514 0 0 0 4.514-4.513v-43.381z"/><path d="m97.043 10.65h-12.612v39.038a4.514 4.514 0 0 0 4.514 4.512h3.584a4.514 4.514 0 0 0 4.514-4.513z"/><path d="m30.957 10.65v39.038a4.514 4.514 0 0 0 4.514 4.512h3.584a4.514 4.514 0 0 0 4.514-4.513v-39.037z"/></g><path d="m116.12 78.51-.09.76a44.529 44.529 0 0 1 -37.77 38.17l-.25.04v-3.55a40.98 40.98 0 0 0 34.44-34.38c1.36-.35 2.59-.7 3.67-1.04z" fill="#65727f"/><path d="m49.99 113.93v3.54l-.26-.04a44.508 44.508 0 0 1 -37.76-38.15l-.1-.77c1.08.34 2.31.69 3.68 1.04a40.958 40.958 0 0 0 34.44 34.38z" fill="#65727f"/></g></svg>