<svg id="Layer_1" enable-background="new 0 0 512 512" height="60" 
viewBox="0 0 512 512" 
width="60" xmlns="http://www.w3.org/2000/svg"><g><path d="m502 436-80-60-80 60-80-60-80 60-80-60v-260l80 60 80-60 80 60 80-60 80 60z" fill="#fff7bf"/><circle cx="110" cy="176" fill="#fff" r="100"/><path d="m120 236-20-50-50-20 100-30z" fill="#99ebfa"/><g><path d="m508 168-80-60c-.075-.056-.153-.104-.229-.158-.104-.074-.208-.146-.314-.216-.152-.099-.306-.191-.462-.281-.105-.06-.207-.123-.314-.18-.196-.104-.396-.197-.596-.287-.102-.046-.204-.092-.308-.135-.236-.096-.475-.185-.716-.262-.111-.036-.225-.065-.338-.096-.18-.051-.361-.099-.543-.14-.118-.026-.236-.049-.355-.071-.198-.037-.396-.066-.594-.091-.102-.013-.204-.027-.307-.037-.613-.057-1.229-.057-1.843 0-.104.009-.205.024-.307.037-.199.025-.397.054-.594.091-.119.022-.238.045-.355.071-.183.041-.363.089-.543.14-.113.032-.227.061-.338.096-.241.078-.48.166-.716.262-.104.043-.206.089-.309.135-.2.09-.4.183-.595.287-.107.057-.21.12-.315.181-.156.09-.31.181-.461.28-.107.07-.21.143-.314.216-.076.054-.154.102-.229.158l-74 55.5-74.005-55.5c-.075-.056-.153-.104-.229-.158-.104-.074-.208-.146-.314-.216-.152-.099-.306-.191-.462-.281-.105-.06-.207-.123-.314-.18-.196-.104-.396-.197-.596-.287-.102-.046-.204-.092-.308-.135-.236-.096-.475-.185-.716-.262-.111-.036-.225-.065-.338-.096-.18-.051-.361-.099-.543-.14-.118-.026-.236-.049-.355-.071-.198-.037-.396-.066-.594-.091-.102-.013-.204-.027-.307-.037-.613-.057-1.229-.057-1.843 0-.104.009-.205.024-.307.037-.199.025-.397.054-.594.091-.119.022-.238.045-.355.071-.183.041-.363.089-.543.14-.113.032-.227.061-.338.096-.241.078-.48.166-.716.262-.104.043-.206.089-.309.135-.2.09-.4.183-.595.287-.107.057-.21.12-.315.181-.156.09-.31.181-.461.28-.107.07-.21.143-.314.216-.076.054-.154.102-.229.158l-42.184 31.638c-15.053-42.839-55.905-73.638-103.821-73.638-60.654 0-110 49.346-110 110 0 54.525 39.879 99.903 92 108.519v91.481c0 3.147 1.481 6.111 4 8l80 60c.075.056.153.104.229.158.104.074.208.146.314.216.152.099.306.19.461.28.105.061.208.124.315.181.195.104.395.197.595.287.103.046.204.093.309.135.236.096.475.185.716.262.111.036.225.065.338.096.18.051.361.099.543.14.118.026.236.049.355.071.197.037.395.066.594.091.103.013.204.027.307.037.613.057 1.229.057 1.843 0 .104-.009.205-.024.307-.037.199-.025.397-.054.594-.091.119-.022.238-.045.355-.071.182-.041.363-.089.543-.14.113-.032.227-.061.338-.096.241-.078.48-.166.716-.262.104-.042.206-.089.308-.135.201-.09.401-.183.596-.287.107-.057.209-.12.314-.18.156-.09.31-.182.462-.281.107-.07.21-.143.314-.216.076-.054.154-.102.229-.158l74-55.5 74 55.5c.075.056.153.104.229.158.104.074.208.146.314.216.152.099.306.19.461.28.105.061.208.124.315.181.195.104.395.197.595.287.103.046.204.093.309.135.236.096.475.185.716.262.111.036.225.065.338.096.18.051.361.099.543.14.118.026.236.049.355.071.197.037.395.066.594.091.103.013.204.027.307.037.613.057 1.229.057 1.843 0 .104-.009.205-.024.307-.037.199-.025.397-.054.594-.091.119-.022.238-.045.355-.071.182-.041.363-.089.543-.14.113-.032.227-.061.338-.096.241-.078.48-.166.716-.262.104-.042.206-.089.308-.135.201-.09.401-.183.596-.287.107-.057.209-.12.314-.18.156-.09.31-.182.462-.281.107-.07.21-.143.314-.216.076-.054.154-.102.229-.158l74-55.5 74 55.5c1.765 1.323 3.876 2 6.001 2 1.524 0 3.057-.348 4.471-1.056 3.398-1.694 5.538-5.156 5.538-8.944v-260c0-3.147-1.481-6.111-4-8zm-236-32 60 45v235l-60-45zm80 45 60-45v235l-60 45zm-100-45v235l-60 45v-166.764c17.402-19.464 28-45.134 28-73.236 0-5.16-.365-10.235-1.056-15.208zm-232 40c0-49.626 40.374-90 90-90s90 40.374 90 90-40.374 90-90 90-90-40.374-90-90zm92 109.975c22.219-.398 42.849-7.415 60-19.161v149.186l-60-45zm380 130.025-60-45v-235l60 45z" fill="#ffa96b"/></g></g></svg>