<svg id="Layer_1" enable-background="new 0 0 40 40" 
height="60" 
viewBox="0 0 512 512" 
width="60" xmlns="http://www.w3.org/2000/svg"><g><path d="m462 386c-22.091 0-40 17.909-40 40v-200h-332v200c0-22.091-17.909-40-40-40s-40 17.909-40 40 17.909 40 40 40h412c22.091 0 40-17.909 40-40s-17.909-40-40-40z" fill="#bfdbff"/><g><path d="m422 240v-14h-46l-120 120h-60v-120h-40v120h-66v40h136l-80 80h60l80-80h136v-40h-106z" fill="#fff"/></g><path d="m50 386c22.091 0 40 17.909 40 40v-220c0-22.091-17.909-40-40-40s-40 17.909-40 40v220c0-22.091 17.909-40 40-40z" fill="#cecdf3"/><path d="m462 386c22.091 0 40 17.909 40 40v-220c0-22.091-17.909-40-40-40s-40 17.909-40 40v220c0-22.091 17.909-40 40-40z" fill="#cecdf3"/><path d="m336 126c0 60-80 140-80 140s-80-80-80-140c0-44.183 35.817-80 80-80s80 35.817 80 80z" fill="#ffbdbc"/><circle cx="256" cy="126" fill="#fff" r="30"/><g><path d="m462 156c-27.57 0-50 22.43-50 50v10h-101.965c18.752-27.358 35.965-60.502 35.965-90 0-49.626-40.374-90-90-90s-90 40.374-90 90c0 29.498 17.213 62.642 35.965 90h-101.965v-10c0-27.57-22.43-50-50-50s-50 22.43-50 50v220c0 27.57 22.43 50 50 50h412c27.57 0 50-22.43 50-50v-220c0-27.57-22.43-50-50-50zm-30 50c0-16.542 13.458-30 30-30s30 13.458 30 30v180.027c-8.363-6.292-18.753-10.027-30-10.027s-21.637 3.735-30 10.027zm-176-150c38.598 0 70 31.402 70 70 0 45.06-50.956 104.732-70.005 125.462-7.47-8.121-19.835-22.219-32.07-39.068-24.811-34.166-37.925-64.04-37.925-86.394 0-38.598 31.402-70 70-70zm-206 120c16.542 0 30 13.458 30 30v180.027c-8.363-6.292-18.753-10.027-30-10.027s-21.637 3.735-30 10.027v-180.027c0-16.542 13.458-30 30-30zm412 280h-412c-16.542 0-30-13.458-30-30s13.458-30 30-30 30 13.458 30 30c0 5.523 4.477 10 10 10s10-4.477 10-10v-190h116.629c16.452 21.093 30.899 35.67 32.3 37.071 1.953 1.953 4.512 2.929 7.071 2.929s5.119-.976 7.071-2.929c1.401-1.401 15.848-15.978 32.3-37.071h116.629v190c0 5.523 4.477 10 10 10s10-4.477 10-10c0-16.542 13.458-30 30-30s30 13.458 30 30-13.458 30-30 30z" fill="#8481e2"/></g></g></svg>