<svg id="Layer_1" enable-background="new 0 0 512.004 512.004" height="60" 
viewBox="0 0 512 512" 
width="60" xmlns="http://www.w3.org/2000/svg"><g><path d="m75.917 75.918h360.169v360.169h-360.169z" fill="#dae6e6" transform="matrix(.866 -.5 .5 .866 -93.703 162.299)"/><path d="m76.002 76.002h360v360h-360z" fill="#fff"/><path d="m116.002 116.002h280v278h-280z" fill="#dae6e6"/><g><path d="m316.002 214.184c0 43.636-60 101.818-60 101.818s-60-58.182-60-101.818c0-32.133 26.863-58.182 60-58.182s60 26.049 60 58.182z" fill="#ffbdbc"/><circle cx="256.002" cy="216.002" fill="#fff" r="20"/></g><g fill="#8aa8bd"><path d="m510.662 316.917-64.614-111.915c-.014-.024-.031-.046-.046-.071v-128.929c0-5.522-4.477-10-10-10h-70.206l-35.218-61c-1.326-2.297-3.51-3.973-6.072-4.659-2.563-.688-5.292-.328-7.588.999l-110.851 64c-.349.201-.675.425-.99.66h-129.075c-5.523 0-10 4.478-10 10v70.206l-61 35.219c-4.783 2.762-6.422 8.877-3.66 13.66l64.614 111.915c.014.024.032.044.046.068v128.932c0 5.522 4.477 10 10 10h70.206l35.218 61c1.326 2.297 3.51 3.973 6.072 4.659.852.229 1.722.341 2.588.341 1.741 0 3.467-.454 5-1.34l110.851-64c.349-.201.675-.425.99-.66h129.075c5.523 0 10-4.478 10-10v-70.206l61-35.219c4.783-2.761 6.422-8.876 3.66-13.66zm-192.405-293.255 24.445 42.34h-97.779zm-294.595 170.085 42.34-24.445v97.78zm170.084 294.595-24.445-42.34h97.779zm232.256-62.34h-340v-340h340zm20-83.299v-97.78l42.34 73.335z"/><path d="m256.002 146.002c-38.598 0-70 30.586-70 68.182 0 47.325 60.464 106.501 63.039 108.997 1.939 1.881 4.45 2.821 6.961 2.821s5.022-.94 6.961-2.821c2.574-2.496 63.039-61.672 63.039-108.997 0-37.596-31.402-68.182-70-68.182zm22.163 129.237c-8.226 10.99-16.537 20.363-22.164 26.393-5.627-6.03-13.938-15.402-22.164-26.393-18.211-24.331-27.836-45.443-27.836-61.055 0-26.567 22.43-48.182 50-48.182s50 21.614 50 48.182c.001 15.611-9.625 36.724-27.836 61.055z"/><path d="m116.002 404.002h280c5.523 0 10-4.478 10-10v-278c0-5.522-4.477-10-10-10h-280c-5.523 0-10 4.478-10 10v278c0 5.523 4.477 10 10 10zm10-278h260v258h-260z"/></g></g></svg>