<svg id="Layer_1" enable-background="new 0 0 512 512" height="60" 
viewBox="0 0 512 512" 
width="60" xmlns="http://www.w3.org/2000/svg"><g><path d="m462 396c-22.091 0-40 17.909-40 40v-200h-332v200c0-22.091-17.909-40-40-40s-40 17.909-40 40 17.909 40 40 40h412c22.091 0 40-17.909 40-40s-17.909-40-40-40z" fill="#ccf5fc"/><path d="m136 376 20-40h40l20 80-80 20 20-40" fill="#a0e5a5"/><path d="m356 426h-60l-20-40h60l-20-40 40-20 40 40z" fill="#a0e5a5"/><path d="m50 396c22.091 0 40 17.909 40 40v-220c0-22.091-17.909-40-40-40s-40 17.909-40 40v220c0-22.091 17.909-40 40-40z" fill="#bfdbff"/><path d="m462 396c22.091 0 40 17.909 40 40v-220c0-22.091-17.909-40-40-40s-40 17.909-40 40v220c0-22.091 17.909-40 40-40z" fill="#bfdbff"/><circle cx="256" cy="196" fill="#ffbdbc" r="120"/><circle cx="256" cy="196" fill="#fff" r="80"/><path d="m271 211-45 15 15-45 45-15z" fill="#ffbdbc"/><path d="m271 211-45 15 15-45" fill="#fff"/><g fill="#60a4ff"><path d="m462 166c-27.57 0-50 22.43-50 50v10h-29.5c2.285-9.634 3.5-19.677 3.5-30 0-62.39-44.181-114.648-102.897-127.15 1.855-3.897 2.897-8.254 2.897-12.85 0-16.542-13.458-30-30-30s-30 13.458-30 30c0 4.596 1.042 8.953 2.897 12.85-58.716 12.502-102.897 64.76-102.897 127.15 0 10.323 1.216 20.366 3.5 30h-29.5v-10c0-27.57-22.43-50-50-50s-50 22.43-50 50v220c0 27.57 22.43 50 50 50h412c27.57 0 50-22.43 50-50v-220c0-27.57-22.43-50-50-50zm-30 50c0-16.542 13.458-30 30-30s30 13.458 30 30v180.027c-8.363-6.292-18.753-10.027-30-10.027s-21.637 3.735-30 10.027zm-186-160c0-5.514 4.486-10 10-10s10 4.486 10 10-4.486 10-10 10-10-4.486-10-10zm10 30c60.654 0 110 49.346 110 110s-49.346 110-110 110-110-49.346-110-110 49.346-110 110-110zm-206 100c16.542 0 30 13.458 30 30v180.027c-8.363-6.292-18.753-10.027-30-10.027s-21.637 3.735-30 10.027v-180.027c0-16.542 13.458-30 30-30zm412 280h-412c-16.542 0-30-13.458-30-30s13.458-30 30-30 30 13.458 30 30c0 5.523 4.477 10 10 10s10-4.477 10-10v-190h36.006c19.63 46.935 66.021 80 119.994 80s100.364-33.065 119.994-80h36.006v190c0 5.523 4.477 10 10 10s10-4.477 10-10c0-16.542 13.458-30 30-30s30 13.458 30 30-13.458 30-30 30z"/><path d="m256 286c49.626 0 90-40.374 90-90s-40.374-90-90-90-90 40.374-90 90 40.374 90 90 90zm0-160c38.598 0 70 31.402 70 70s-31.402 70-70 70-70-31.402-70-70 31.402-70 70-70z"/><path d="m226.001 236c1.058 0 2.125-.168 3.161-.514l45-15c2.986-.995 5.33-3.338 6.325-6.325l15-45c1.198-3.593.263-7.555-2.416-10.233s-6.639-3.613-10.233-2.416l-45 15c-2.986.995-5.33 3.338-6.325 6.325l-15 45c-1.198 3.593-.263 7.555 2.416 10.233 1.906 1.907 4.462 2.93 7.072 2.93zm22.905-47.094 21.283-7.094-7.094 21.283-21.283 7.094z"/></g></g></svg>