<svg id="Layer_1" enable-background="new 0 0 512 512" height="60" 
viewBox="0 0 512 512" 
width="60" xmlns="http://www.w3.org/2000/svg"><g><path d="m56 82h300v420h-300z" fill="#ccf5fc"/><path d="m56 262h42v-120h-42" fill="#bfdbff"/><path d="m356 262h-42v-120h42" fill="#bfdbff"/><path d="m136 142h140v120h-140z" fill="#fff"/><g><path d="m126 342v-40h160v40" fill="#bfdbff"/><path d="m246 302v100h-80v-100" fill="#d0f2d2"/><circle cx="206" cy="352" fill="#fff" r="15"/></g><g><path d="m456 68.182c0 43.636-60 101.818-60 101.818s-60-58.182-60-101.818c0-32.133 26.863-58.182 60-58.182s60 26.049 60 58.182z" fill="#ffbdbc"/><circle cx="396" cy="70" fill="#fff" r="20"/><g fill="#60a4ff"><path d="m136 272h140c5.522 0 10-4.478 10-10v-120c0-5.522-4.478-10-10-10h-140c-5.522 0-10 4.478-10 10v120c0 5.522 4.478 10 10 10zm10-120h120v100h-120z"/><path d="m396 0c-38.598 0-70 30.586-70 68.182 0 1.264.052 2.539.136 3.818h-270.136c-5.522 0-10 4.478-10 10v420c0 5.522 4.478 10 10 10h300c5.522 0 10-4.478 10-10v-350.316c11.866 14.572 22.016 24.504 23.038 25.495 1.94 1.881 4.451 2.821 6.962 2.821s5.022-.94 6.962-2.821c2.573-2.496 63.038-61.672 63.038-108.997 0-37.596-31.402-68.182-70-68.182zm-72 192h22v20h-22zm0-20v-20h22v20zm0 60h22v20h-22zm6.324-140c3.652 10.873 9.296 21.776 15.676 31.981v8.019h-32c-5.522 0-10 4.478-10 10v120c0 5.522 4.478 10 10 10h32v60h-50v-30c0-5.522-4.478-10-10-10h-160c-5.522 0-10 4.478-10 10v30h-50v-60h32c5.522 0 10-4.478 10-10v-120c0-5.522-4.478-10-10-10h-32v-40zm-74.324 240v-20h20v20zm-100 0h-20v-20h20zm20-20h60v80h-60zm-88-100h-22v-20h22zm0 20v20h-22v-20zm0-60h-22v-20h22zm-22 320v-140h90v50c0 5.522 4.478 10 10 10h80c5.522 0 10-4.478 10-10v-50h90v140zm330-336.371c-5.627-6.03-13.938-15.402-22.164-26.393-18.21-24.331-27.836-45.443-27.836-61.054 0-26.568 22.43-48.182 50-48.182s50 21.614 50 48.182c0 15.611-9.626 36.724-27.836 61.055-8.226 10.99-16.537 20.363-22.164 26.392z"/></g></g></g></svg>