<svg id="Layer_1" enable-background="new 0 0 512 512" height="60" 
viewBox="0 0 512 512" 
width="60" xmlns="http://www.w3.org/2000/svg"><g><path d="m62 166h440v300h-440z" fill="#ccf5fc" transform="matrix(-1 0 0 -1 564 632)"/><g><path d="m402 326h100v140h-100z" fill="#d0f2d2"/></g><path d="m242 166h120v60h-120z" fill="#d0f2d2"/><path d="m62 346h80v120h-80z" fill="#fff7bf"/><path d="m402 166h100v120h-100z" fill="#fff7bf"/><path d="m402 166h-40v180h-80l-40-40h-180v40h80v120h40v-120h40l40 40h100v80h40v-140h100v-40h-100z" fill="#fff"/><circle cx="110" cy="146" fill="#fff" r="100"/><path d="m120 206-20-50-50-20 100-30z" fill="#ffbdbc"/><g><path d="m502 156h-282.459c.298-3.295.459-6.629.459-10 0-60.654-49.346-110-110-110s-110 49.346-110 110c0 39.381 20.807 73.989 52 93.425v226.575c0 5.523 4.478 10 10 10h440c5.522 0 10-4.477 10-10v-300c0-5.523-4.478-10-10-10zm-110 170v130h-20v-70c0-5.523-4.478-10-10-10h-95.857l-37.071-37.071c-1.877-1.875-4.42-2.929-7.072-2.929h-40c-5.522 0-10 4.477-10 10v110h-20v-110c0-5.523-4.478-10-10-10h-70v-20h165.857l37.071 37.071c1.876 1.875 4.419 2.929 7.071 2.929h80c5.522 0 10-4.477 10-10v-170h20v110c0 5.523 4.478 10 10 10h90v20h-90c-5.521 0-9.999 4.477-9.999 10zm-40 130h-160v-100h25.857l37.071 37.071c1.876 1.875 4.419 2.929 7.071 2.929h90v60zm-100-220h100v100h-65.857l-34.143-34.143zm100-20h-100v-40h100zm140 60h-80v-100h80zm-472-130c0-49.626 40.374-90 90-90s90 40.374 90 90-40.374 90-90 90-90-40.374-90-90zm90 110c50.258 0 92.751-33.88 105.842-80h16.158v120h-160v-46.768c11.849 4.375 24.65 6.768 38 6.768zm-38 100h60v100h-60zm340 100v-120h80v120z" fill="#60a4ff"/></g></g></svg>