<svg id="Layer_1" enable-background="new 0 0 512 512" height="60" 
viewBox="0 0 512 512" 
width="60" xmlns="http://www.w3.org/2000/svg"><g><path d="m62 146h440v320h-440z" fill="#dae6e6"/><path d="m102 186h360v200h-360z" fill="#d0f2d2"/><path d="m102 316h110v70h-110z" fill="#ccf5fc"/><path d="m402 186h-300v90h210z" fill="#fff7bf"/><path d="m402 186-90 90-90-90z" fill="#ccf5fc"/><path d="m332 316 130-130h-60l-90 90h-210v40h110v70h40v-70z" fill="#fff"/><circle cx="110" cy="146" fill="#fff" r="100"/><path d="m120 206-20-50-50-20 100-30z" fill="#99ebfa"/><g><path d="m312 436h-60c-5.523 0-10-4.478-10-10s4.477-10 10-10h60c5.523 0 10 4.478 10 10s-4.477 10-10 10z" fill="#fff"/></g><g><path d="m502 136h-282.459c-5.07-55.985-52.258-100-109.541-100-60.654 0-110 49.346-110 110 0 39.381 20.807 73.989 52 93.425v226.575c0 5.522 4.477 10 10 10h440c5.523 0 10-4.478 10-10v-320c0-5.522-4.477-10-10-10zm-174.143 190 50 50h-115.857v-50zm78.286 50-60-60 105.857-105.857v165.857zm-78.285-70h-75.858c-5.523 0-10 4.478-10 10v60h-20v-60c0-5.522-4.477-10-10-10h-100v-20h200c.326 0 .652-.017.976-.048.083-.008.163-.025.245-.036.242-.029.484-.061.724-.108.071-.014.139-.036.209-.051.249-.055.497-.113.743-.187.049-.015.095-.035.144-.05.262-.084.523-.174.779-.279.031-.013.061-.029.092-.042.268-.114.533-.236.792-.375.03-.016.058-.035.088-.052.254-.139.506-.286.75-.448.068-.045.13-.098.197-.145.2-.141.4-.281.591-.438.257-.21.505-.434.742-.67l87.071-87.071h31.715zm-119.893-110h9.892l70 70h-175.857v-10.025c41.817-.75 78.014-24.945 95.965-59.975zm-95.965 130h90v50h-90zm200-64.143-65.857-65.857h131.715zm-292-115.857c0-49.626 40.374-90 90-90s90 40.374 90 90-40.374 90-90 90-90-40.374-90-90zm442 30h-246.159c1.83-6.447 3.077-13.134 3.699-20h272.46v300h-420v-206.768c6.409 2.366 13.098 4.146 20 5.287v131.481c0 5.522 4.477 10 10 10h360c5.523 0 10-4.478 10-10v-200c.01-.611.011-4.502-3.146-7.415-2.801-2.583-6.137-2.598-6.854-2.585z" fill="#8aa8bd"/></g></g></svg>